<?xml version="1.0" encoding="UTF-8" standalone="no"?>
<svg
   xmlns:dc="http://purl.org/dc/elements/1.1/"
   xmlns:cc="http://creativecommons.org/ns#"
   xmlns:rdf="http://www.w3.org/1999/02/22-rdf-syntax-ns#"
   xmlns:svg="http://www.w3.org/2000/svg"
   xmlns="http://www.w3.org/2000/svg"
   xmlns:sodipodi="http://sodipodi.sourceforge.net/DTD/sodipodi-0.dtd"
   xmlns:inkscape="http://www.inkscape.org/namespaces/inkscape"
   viewBox="0 0 348 348"
   fill="none"
   version="1.1"
   id="svg18"
   sodipodi:docname="Unicode.svg"
   inkscape:version="0.92.4 (5da689c313, 2019-01-14)">
  <metadata
     id="metadata24">
    <rdf:RDF>
      <cc:Work
         rdf:about="">
        <dc:format>image/svg+xml</dc:format>
        <dc:type
           rdf:resource="http://purl.org/dc/dcmitype/StillImage" />
      </cc:Work>
    </rdf:RDF>
  </metadata>
  <defs
     id="defs22" />
  <sodipodi:namedview
     pagecolor="#ffffff"
     bordercolor="#666666"
     borderopacity="1"
     objecttolerance="10"
     gridtolerance="10"
     guidetolerance="10"
     inkscape:pageopacity="0"
     inkscape:pageshadow="2"
     inkscape:window-width="1920"
     inkscape:window-height="1017"
     id="namedview20"
     showgrid="false"
     inkscape:zoom="0.67816092"
     inkscape:cx="174"
     inkscape:cy="174"
     inkscape:window-x="1912"
     inkscape:window-y="-8"
     inkscape:window-maximized="1"
     inkscape:current-layer="svg18" />
  <path
     d="M5.079 5.776h336.913v337.67H5.08z"
     stroke="#000"
     stroke-width="2"
     id="path2" />
  <path
     d="M282.734 40.554c0-8.376 6.966-15.165 15.56-15.165 4.126 0 8.084 1.597 11.001 4.441 2.918 2.844 4.558 6.702 4.558 10.724 0 8.376-6.966 15.165-15.56 15.165-8.593 0-15.559-6.79-15.559-15.165z"
     stroke-width="2"
     stroke="#000"
     id="path4" />
  <path
     stroke="#000"
     d="M17.695 26.542h258.051v97.322H17.695z"
     id="path6" />
  <path
     fill="#000"
     stroke="#000"
     stroke-width="1.149"
     d="M17.349 140.18h308.83v42.573H17.349z"
     id="path8" />
  <path
     d="M286.159 76.77h41.105v42.58h-41.105z"
     id="path10"
     stroke-width="1.183"
     stroke="#000" />
  <path
     stroke="#000"
     stroke-width=".96"
     d="M52.756 220.449h31.286v36.864H52.756zM16.78 220.449h31.286v36.864H16.78zM88.732 220.449h31.286v36.864H88.732zM124.708 220.449h31.286v36.864h-31.286zM160.685 220.449h31.286v36.864h-31.286zM196.661 220.449h31.286v36.864h-31.286zM232.637 220.449h31.286v36.864h-31.286zM268.613 220.449h31.286v36.864h-31.286zM304.589 220.449h31.286v36.864h-31.286zM53.378 273.534h31.286v36.864H53.378zM17.402 273.534h31.286v36.864H17.402zM89.354 273.534h31.286v36.864H89.354zM125.33 273.534h31.286v36.864H125.33zM161.306 273.534h31.286v36.864h-31.286zM197.282 273.534h31.286v36.864h-31.286zM233.259 273.534h31.286v36.864h-31.286zM269.235 273.534h31.286v36.864h-31.286zM305.211 273.534h31.286v36.864h-31.286z"
     id="path16" />
  <g
     style="font-style:normal;font-weight:normal;font-size:40px;line-height:1.25;font-family:sans-serif;letter-spacing:0px;word-spacing:0px;fill:#000000;fill-opacity:1;stroke:none"
     id="text840" />
  <g
     aria-label="U+"
     transform="scale(0.92846882,1.0770421)"
     style="font-style:normal;font-weight:normal;font-size:27.91535568px;line-height:1.25;font-family:sans-serif;letter-spacing:0px;word-spacing:0px;fill:#000000;fill-opacity:1;stroke:none;stroke-width:0.6978839"
     id="text848">
    <path
       d="m 326.91992,92.831257 q 0,2.208148 -0.4907,3.857444 -0.47707,1.635665 -1.58114,2.726109 -1.04955,1.03592 -2.4535,1.51299 -1.40395,0.47707 -3.27133,0.47707 -1.90828,0 -3.32585,-0.50433 -1.41758,-0.50433 -2.38535,-1.48573 -1.10407,-1.117705 -1.59477,-2.698848 -0.47707,-1.581143 -0.47707,-3.884705 V 80.686442 h 2.69885 v 12.28112 q 0,1.649296 0.21808,2.603434 0.23172,0.954139 0.76332,1.73108 0.59974,0.885985 1.62203,1.335793 1.03592,0.449808 2.48076,0.449808 1.45847,0 2.48076,-0.436177 1.02229,-0.449808 1.63566,-1.349424 0.53159,-0.776941 0.74968,-1.771971 0.23172,-1.008661 0.23172,-2.49439 V 80.686442 h 2.69885 z"
       style="stroke-width:0.6978839"
       id="path851" />
    <path
       d="m 349.34217,93.185651 h -7.42865 v 7.428649 h -2.26267 v -7.428649 h -7.42865 v -2.180887 h 7.42865 v -7.428647 h 2.26267 v 7.428647 h 7.42865 z"
       style="stroke-width:0.6978839"
       id="path853" />
  </g>
</svg>
